<?xml version="1.0" encoding="UTF-8"?>
<svg id="Layer_1" data-name="Layer 1" xmlns="http://www.w3.org/2000/svg" viewBox="0 0 183.16 108.16">
  <defs>
    <style>
      .cls-1 {
        fill: #518dcb;
      }
    </style>
  </defs>
  <path class="cls-1" d="M23.5,68.15l-3.15-.82c-.77-.2-1.48-.58-2.18-.92l-4.75-2.34c-.77-.38-1.48-.86-2.18-1.35l-3.42-2.38c-1.93-1.34-7.52-6.45-7.82-9.06l1.48,1.86c.38.47.9.92,1.39,1.31l3.3,2.56c3.69,2.85,10.37,6.17,14.84,7.65,2.03.67,4.03,1.29,6.1,1.73l4.91,1.05c3.57.76,6.99,1.25,10.66,1.63,10.22,1.06,22.91-.18,31.72-5.82,1.56-.99,2.83-2.16,4.03-3.51,2.27-2.57,3.63-5.59,3.44-9.12-.08-1.55-.63-3.02-1.55-4.29-.8-1.1-1.6-2.33-2.63-3.21-2.45-2.09-5.88-3.76-8.98-4.6-3.59-.98-9.6-1.62-13.34-1.4l-4.56.27-8.68,1c-.23.03-.82.3-.85.54-.62,5.79-.69,7.28-2.13,13.09-.21.86-.56,1.81-.89,2.62l-.78,1.91c-.22.55-.39.9-.87,1.49-.24-.39-.42-.82-.4-1.07l.11-1.74.62-5.4c.41-3.54.64-6.99.78-10.7-3.63.58-6.92.84-10.46.87-2.48.02-4.82-.39-7.03-1.5-4.52-2.73-4.54-7.12-2.12-11.41,3.07-5.46,9.65-9.74,15.07-12.71.8-.44,1.66-.83,2.5-1.23,6.35-2.98,14.6-6.16,21.33-8.01l2.92-.8,2.66-.66,4.04-.93,3.73-.7C78.59.48,89.05-.37,97.41.16c4.67.3,10.25.9,14.46,2.8,1.01.45,1.92,1.08,2.85,1.71.58.39,1,1.09,1.38,1.68.72,1.13.82,2.51-.14,3.61-.5.58-1.68,1.95-2.48,1.78.93-1.49,2.43-3.14.92-4.91-2.63-3.08-9.73-4.25-13.66-4.5l-5.22-.33-5.19-.03c-2.79-.02-11.57.82-14.32,1.29l-6.03,1.04-3.49.67-3.2.71c-1.4.31-2.77.66-4.13,1.07l-4.84,1.44-3.13,1.05-3.8,1.38-3.53,1.44-2.51,1.04c-5.47,2.28-10.35,4.85-15.01,8.53-3.13,2.47-7.87,6.87-6.93,11.27.26,1.21,1.42,1.97,2.5,2.35,1.5.52,2.98.97,4.56,1.03,3.86.14,7.51-.12,11.38-.57l.07-1.92c.03-.72-.02-1.7.17-2.34.7-2.35,3.6-3.55,3.69-2.59.06.73-.06,1.63-.09,2.32l-.14,4.17,4.26-.57c4.08-.55,11.41-1.11,15.39-.75,4.97.45,9.13.91,13.65,3.03,2.17,1.01,4.18,2.16,5.86,3.87,1.4,1.43,2.71,2.95,3.42,4.84.65,1.72,1.18,4.32.87,6.14-.27,1.61-.62,3.22-1.32,4.68-2.06,4.3-5.94,8.05-10.1,10.38-3.6,2.01-7.7,3.37-11.78,4.23-7.78,1.64-13.11,1.62-21.02.7-5.95-.7-11.54-2.22-17.31-3.72Z"/>
  <g>
    <path class="cls-1" d="M125.87,61.72c-3.19.67-6.09-1.28-7.35-4.23l-1.5-3.53c-.61-1.43-1.33-2.94-2.36-4.1-1.62-1.83-5.05-1.95-7.27-.95-2.51,1.13-2.26,3.44-1.67,5.6.88,3.19,2.06,2.73,1.87,3.89-.13.8-2.01.65-2.88-.46-.94-1.22-1.64-2.56-1.91-4.08-.34-1.97.43-4.26,1.72-5.64,2.25-2.42,6.17-3.83,9.47-3.06,1.73.4,3.33,1.39,4.5,2.67s1.93,3,2.64,4.63c.6,1.39,1.16,2.63,1.86,4,.24.48.92,1.05,1.34,1.39,1.58,1.3,3.82.58,4.76-1.17.29-.54.88-1.34.92-1.9l.72-9.12c.06-.7.12-1.6.46-2.21.45-.79,2.51-2.85,3.46-2.3.18.1.3.5.28.76l-.21,4.2c-.14,2.71-.76,6.35-.82,8.34-.21,6.2-.24,12.27.04,18.46l.19,4.14.21,5.45.12,3.32v3.76c.01,1.24-.08,2.49-.16,3.74l-.17,2.72c-.17,2.81-.68,6.38-1.6,9-.39,1.1-1.37,2.04-2.08,3.15l.07-2.6.33-5.6c.08-1.32.02-2.62,0-3.94l-.05-3.15-.29-8.74-.53-12.54-.08-2.64-.05-8.59c-1.37.52-2.65,1.08-4,1.37Z"/>
    <path class="cls-1" d="M96.18,63.65c2.73,2.07,6.8,2.8,8.97.31.27-.31,1.44-1.89,2.02-1.3.8.8-.51,3.33-1.79,4.27-3.2,2.35-6.61,2.62-10.2.86-6.63-3.26-8.59-11.6-6.83-18.37,1.3-4.99,3.75-8.77,7.14-12.58,2.41-2.7,5.24-4.96,8.43-6.66,1.81-.96,7.06-3.44,8.18-.69.63,1.53-1.03,3.97-2.45,4.74-.79-.57-.16-1.26.13-3,.05-.3-.6-.87-.97-.8-.91.18-2.03.43-2.97.94-2.62,1.4-4.99,3.12-7.04,5.28-3.1,3.25-5.4,6.43-6.8,10.74-1.03,3.17-1.28,6.47-.25,9.65.85,2.6,2.16,4.9,4.4,6.61Z"/>
  </g>
  <path class="cls-1" d="M176.1,86.81c-.02-.81-.02-1.72.07-2.67l.35-3.97c.05-.53.02-1.11.02-1.64l.11-6.43-.05-2.16.19-12.02.14-3.11.22-3.33.7-6.43.44-3.29c.1-.78.28-1.87.76-2.49.54-.7,2.63-2.37,3.66-1.59.22.16.49.82.44,1.1l-.6,3.23c-.23,1.26-.52,2.45-.65,3.71l-.57,5.42c-.38,3.65-.41,7.21-.53,10.94l-.38,11.65c-.04,1.35-.22,2.63-.4,3.95l-.34,2.43c-.39,2.81-.73,2.4-1.66,3.74-1.37,1.97-1.1-.32-1.92,2.96Z"/>
  <g>
    <path class="cls-1" d="M146.19,63.77c-2.04.39-5.56.91-6.96-.78-.19-.23-.23-1.02-.06-1.29,1.63-2.75,5.56-7.08,9.09-4.85,2.63,1.66,2.26,2.94,3.58,2.07,1.62-1.08,2.96-2.28,4.15-3.83,1.65-2.15,1.86-3.74,1.55-6.45-.16-1.38-1.4-3.38-3.02-3.42-.68-.02-1.54.45-1.95,1.08-1.68,2.55-.93,7.24,2.09,8.2.17.05.35.47.28.58-.67.97-1.96.93-2.99.49-2.78-1.17-4.18-4.22-3.43-7.15.15-.6.31-1.39.6-1.9,1.41-2.46,4.08-4.24,6.97-4.34,2.56-.09,4.57,1.9,5,4.27.24,1.33.32,2.68.1,3.99-.88,5.22-4.24,8.27-8.55,11.05l1.26,2.16,3.95,7.49c.94,1.78,2.13,3.99,3.91,4.99l1.1-.83c.24-.18.98-.23,1.24-.06.29.18.53.92.36,1.3-.85,1.86-2.73,3.01-4.79,2.92-1.36-.06-2.51-.92-3.22-2.04-1.07-1.69-2.03-3.37-2.95-5.15l-1.92-3.69c-.95-1.82-1.98-3.49-3.13-5.19l-2.23.42ZM146.66,61.02c-.82-.86-1.34-1.15-2.18-1.48-.77.54-1.26,1-1.59,1.92,1.43.09,2.39-.01,3.77-.44Z"/>
    <path class="cls-1" d="M143.62,40.27c-2.57-2.57-3.33-3.96-5.01-7.06l-.94-1.74-1.42-2.57c-.7-.24-2.38-3.58-2.74-4.31-1.7-3.47-2.6-6.13-4.41-9.51l-2.48-4.63-1.85-3.29c-.63-1.8,1.2-3.84,2.95-3.83.36.39.7.97.95,1.45l1.22,2.38c1.14,2.23,2.29,4.37,3.31,6.65l2.31,5.17,5.2,12.06c1.44,3.35,3.14,6.98,5.18,10.11l-.98-.28c-.37-.1-1-.32-1.26-.59Z"/>
  </g>
</svg>